<mxfile host="app.diagrams.net" modified="2024-07-22T06:31:58.432Z" agent="Mozilla/5.0 (Windows NT 10.0; Win64; x64) AppleWebKit/537.36 (KHTML, like Gecko) Chrome/126.0.0.0 Safari/537.36" version="24.7.1" etag="Pn0I5kS1JLgxJSJCHcZh" type="github">
  <diagram name="Page-1" id="yEtbBm1C0fHclImPkZ5K">
    <mxGraphModel>
      <root>
        <mxCell id="0" />
        <mxCell id="1" parent="0" />
      </root>
    </mxGraphModel>
  </diagram>
</mxfile>
